Simulation
nRows=27
nColumns=15
endheader
time  TH_x TH_y TH_z SC_y  SC_z  SC_x  AC_y  AC_z  AC_x  GH_y  GH_z  GH_yy  EL_x  PS_y
2.6910411985018725  0.000000  0.000000  0.000000  -27.88757903997219  4.27560815837845  -0.16747322637813616  53.88042304567483  9.989125445630817  1.4431713462496136  116.50538484074828  2.9785264747591755  -79.23533764657255  16.00762404719447  120.000000
2.7312059925093632  0.000000  0.000000  0.000000  -27.735340073761236  4.149636052772316  -0.30488281766862063  53.97271157907038  10.163853291282244  1.494872142796915  122.33591746062115  4.436412506717249  -82.57189289244441  16.80546256230698  120.000000
2.771370786516854  0.000000  0.000000  0.000000  -27.697377195742217  4.058976562594099  -0.37499990876079614  54.0517984990191  10.329962373009675  1.527608651366581  123.66698473829251  5.821563207076199  -81.9444697827364  17.484843023921655  120.000000
2.8115355805243447  0.000000  0.000000  0.000000  -27.742452678476724  3.990875745209467  -0.40027347650923617  54.11750062511082  10.481448564009654  1.541198956473276  123.74410993546003  7.074496712226096  -80.56054997480176  18.02934345256366  120.000000
2.851700374531835  0.000000  0.000000  0.000000  -27.83416648521484  3.937913678625448  -0.39485081167422903  54.17483785158473  10.61682278600232  1.5410432618575707  123.5910167578174  8.151761707172152  -79.37577781288654  18.43406404410805  120.000000
2.8918651685393257  0.000000  0.000000  0.000000  -27.939224583791994  3.8970502223727452  -0.3661321630214752  54.23049279578112  10.73684041010844  1.5345653807672266  123.58750396716088  9.020119895579258  -78.688669643756  18.700614213457687  120.000000
2.9320299625468165  0.000000  0.000000  0.000000  -28.03426643649925  3.8673426092576957  -0.3171945587671355  54.29039884387071  10.843384039715154  1.5282792964267982  123.8787434713645  9.6628918037875  -78.5626189475027  18.836230739148014  120.000000
2.972194756554307  0.000000  0.000000  0.000000  -28.10807688672619  3.8492797217513726  -0.249555873689317  54.35761073564044  10.93821274884011  1.526343350963317  124.51224620387661  10.085458467264504  -78.9709668070143  18.855390197543116  120.000000
3.012359550561798  0.000000  0.000000  0.000000  -28.159914895511925  3.8430396984229467  -0.16398834608440405  54.433137795439436  11.02189808680776  1.5291794347368186  125.48494843512215  10.316411735934926  -79.84839031620996  18.780948387907983  120.000000
3.0525243445692882  0.000000  0.000000  0.000000  -28.194964714470395  3.845743186914912  -0.06068284545714491  54.51724426210238  11.094078252692507  1.5343436924565106  126.7599613035879  10.40235530378782  -81.10837992367796  18.64224103180142  120.000000
3.092689138576779  0.000000  0.000000  0.000000  -28.220163682376274  3.8523567173087385  0.060175839342882356  54.61093412841408  11.154306070220168  1.5396863683786357  128.2785389683461  10.396892884795852  -82.65418027060137  18.47054096892532  120.000000
3.1328539325842697  0.000000  0.000000  0.000000  -28.2415694419713  3.858522949423531  0.19789770903390597  54.71497312373165  11.202513384744577  1.5432604967556536  129.96952020385564  10.35012828092596  -84.38667621459882  18.293715980918385  120.000000
3.1730187265917604  0.000000  0.000000  0.000000  -28.262878910919856  3.861690997540819  0.3511996029467898  54.82812298733402  11.23878899073451  1.5429334899095286  131.76254305178222  10.300809621334551  -86.21654072343122  18.131322223326535  120.000000
3.2131835205992507  0.000000  0.000000  0.000000  -28.28551071807793  3.8610323485286644  0.5183654535092245  54.94752868722989  11.263259430171304  1.5367807412938812  133.60001065392643  10.272920738743109  -88.07525131208706  17.992141142176898  120.000000
3.2533483146067415  0.000000  0.000000  0.000000  -28.309254216916898  3.857197311212591  0.6976713781818114  55.069528212807356  11.27611730890603  1.5231544272048532  135.44441189548877  10.276692453726842  -89.92112161859308  17.875386466922137  120.000000
3.293513108614232  0.000000  0.000000  0.000000  -28.333138882060172  3.8516083784245536  0.8878506685235695  55.19076467410287  11.277727166724064  1.501009530622271  137.28048131574175  10.311799594659947  -91.73959683032649  17.774248260303114  120.000000
3.333677902621723  0.000000  0.000000  0.000000  -28.356155039179896  3.845633317659785  1.0882428923373695  55.30906503065589  11.268736527833921  1.4698732603093958  139.10880711232852  10.37204898682847  -93.53496596435018  17.67997952095955  120.000000
3.3738426966292137  0.000000  0.000000  0.000000  -28.377877688929427  3.8399953990338522  1.298848607199089  55.42384786518368  11.250086546562565  1.429953839679945  140.9374325650319  10.449678505613527  -95.32026605376225  17.58522909073993  120.000000
3.414007490636704  0.000000  0.000000  0.000000  -28.39879571182398  3.834496640694805  1.5200958772115531  55.535831610352965  11.223060979024536  1.381786162534738  142.77366916923535  10.538333139267863  -97.10777928229183  17.48603424052131  120.000000
3.4541722846441947  0.000000  0.000000  0.000000  -28.420304954399388  3.828391473856851  1.7525056823388856  55.64603955769626  11.189337399104895  1.3259701317990706  144.62236362786814  10.63401900588939  -98.9063795728365  17.38234931541892  120.000000
3.4943370786516854  0.000000  0.000000  0.000000  -28.444283815052586  3.8211302987404356  1.9964497263022705  55.75514445179298  11.150807988356389  1.2624254019710779  146.48455643567226  10.735130638800007  -100.71977577136441  17.277091892381303  120.000000
3.534501872659176  0.000000  0.000000  0.000000  -28.472190778952317  3.812615053300375  2.2523004669936557  55.862445065821966  11.108922699586525  1.1904396506405215  148.359052432333  10.841745439641928  -102.5476806812504  17.174453654182027  120.000000
3.574666666666667  0.000000  0.000000  0.000000  -28.503856847822522  3.803250253593534  2.5198119389263964  55.96570474599745  11.064026632623037  1.1095290287153008  150.24330913893527  10.953802885696513  -104.38692013080288  17.078002686190274  120.000000
3.614831460674157  0.000000  0.000000  0.000000  -28.535902934102634  3.7943407207578326  2.7974854092865393  56.061687791635826  11.015098006377439  1.0199241133890644  152.13722663646297  11.06913417575611  -106.23545071772013  16.988775968717086  120.000000
3.654996254681648  0.000000  0.000000  0.000000  -28.560539161744053  3.788280219645153  3.082046862367092  56.14618748874056  10.959479001868186  0.9231221561294625  154.04785012066736  11.181607639093667  -108.09729275554601  16.90396465096503  120.000000
3.6951610486891386  0.000000  0.000000  0.000000  -28.565732902326367  3.7883444127061274  3.368216916555683  56.21462723678058  10.893072413365411  0.8219490419375152  155.98634888634933  11.280469079424496  -109.98086543708052  16.816731424667537  120.000000
3.7353258426966294  0.000000  0.000000  0.000000  -28.536267728137986  3.7981648891347426  3.649585980627159  56.26306330683619  10.810729615447604  0.7201170680734162  157.96182765032626  11.34991720001226  -111.89435984067774  16.717299840964984  120.000000
